# Blender v2.82 (sub 7) OBJ File: 'rock_4.blend'
# www.blender.org
mtllib rock.mtl
o rock_4_low_Cube.001
v -1.664774 -1.097427 0.267697
v -1.485826 0.467338 0.816665
v -2.030189 -0.654724 0.331029
v -1.931831 0.200786 0.503212
v -0.106684 -0.957528 1.635383
v -0.119527 -0.523993 1.645437
v -0.100904 0.002024 1.695404
v -0.788010 -1.696065 0.819313
v -0.897826 -1.216565 1.042650
v -1.280897 -1.330872 0.487567
v -0.364620 -1.907094 1.096324
v -0.346550 -1.315240 1.400955
v -0.365994 -2.103085 0.435005
v -1.387134 -0.561246 0.740772
v -1.144959 0.209100 0.953075
v -0.503682 -0.526924 1.348745
v -0.372186 0.239731 1.420435
v -1.532499 1.289588 0.867166
v -1.912611 0.934965 0.461644
v -1.818741 1.697474 0.509031
v -1.900190 2.306608 0.169836
v -1.580541 2.770268 0.199945
v -0.232630 1.205877 1.549748
v -0.045695 1.666890 1.604354
v -1.051520 1.057368 1.101335
v -1.102674 1.658616 1.020731
v -0.234803 0.868969 1.403770
v -0.911819 2.373399 0.919439
v -0.932588 2.794259 0.837790
v -1.243915 2.488846 0.629159
v -0.879281 3.049151 0.412052
v -0.206893 2.365186 1.296398
v -0.476054 3.026787 0.981825
v -0.306253 3.196816 0.473564
v -1.812589 -1.179381 -0.307746
v -1.583146 -1.013719 -0.801111
v -1.908350 -0.506616 -0.330475
v -2.094008 0.439970 0.074006
v -1.771481 -0.525678 -0.936548
v -1.970725 0.183075 -0.931484
v -0.884756 -1.776040 -0.101663
v -1.323028 -1.468051 -0.237692
v -0.935739 -1.802896 -0.683717
v -1.159953 -1.346849 -1.131302
v -0.363677 -2.189644 -0.345091
v -0.269510 -1.846907 -0.753287
v -0.383748 -1.460629 -1.139689
v -1.141368 -0.437915 -1.237587
v -0.823389 -1.053838 -1.435518
v -0.269967 -1.046173 -1.494895
v -0.734513 -0.749838 -1.431903
v -0.323440 -0.418257 -1.454362
v -2.133092 1.283199 -0.177443
v -2.003981 0.946274 -0.748556
v -1.713793 1.431876 -0.735202
v -1.474728 2.004519 -0.561793
v -1.148010 0.770880 -0.890969
v -1.106440 1.648667 -0.789449
v -0.353191 1.950956 -0.916041
v -0.977025 3.200132 -0.289370
v -1.044640 2.477405 -0.765766
v -0.317135 2.681405 -0.487345
v -0.408640 3.382592 0.026847
v -0.341344 2.302490 -0.807626
v 0.180701 -0.865018 1.755394
v 0.319414 -0.595632 1.823740
v 0.343921 0.104593 1.725677
v 0.806732 -0.366033 1.633689
v 0.776587 0.005641 1.647183
v 0.189217 -1.761471 1.170456
v 0.436973 -1.308306 1.449778
v 0.610033 -2.141636 0.767962
v 0.840990 -1.770780 1.042994
v 1.095373 -1.292902 1.175055
v 1.077097 -1.869918 0.539576
v 0.699972 -0.868121 1.541894
v 0.343307 0.470237 1.567312
v 1.157112 -0.555212 1.320645
v 0.979179 0.236497 1.408738
v 1.484502 -1.081616 0.837189
v 1.736416 -0.639336 0.987683
v 1.688179 0.164399 0.877929
v 1.987622 -0.895947 0.243551
v 0.205372 1.116090 1.647534
v 0.289504 1.334333 1.661783
v 0.489341 0.812059 1.560291
v 0.459000 1.737602 1.405160
v 0.940441 0.949218 1.400526
v 1.165470 1.444602 1.171078
v 0.390834 2.425859 1.088456
v 0.132761 2.830239 0.870046
v 0.579602 2.736228 0.418985
v 0.171021 2.974826 0.456572
v 0.894942 2.143032 0.906912
v 1.069926 2.201446 0.408147
v 1.433455 0.928533 1.115720
v 1.472749 1.254542 0.193255
v 0.414235 -2.104717 -0.264466
v 0.299843 -1.805291 -0.863092
v 0.395416 -1.500993 -1.238774
v 1.161519 -1.960106 -0.245849
v 1.450772 -1.544590 -0.428195
v 1.119274 -1.895623 -0.869518
v 1.177228 -1.382687 -1.415759
v 1.294827 -0.368953 -1.283036
v 0.475309 -1.174469 -1.625663
v 0.467296 -0.627789 -1.630799
v 0.446743 0.215487 -1.451088
v -0.322820 0.977338 -1.006412
v 1.480259 -1.649192 0.188660
v 1.611614 -1.105450 -0.798736
v 2.091230 -0.290626 -0.621594
v 1.574524 1.101197 -1.065608
v 0.554693 1.121764 -1.331881
v 0.255565 1.659135 -1.104503
v 1.269106 1.856869 -0.431038
v 1.222467 0.954751 -1.277794
v 1.046564 1.617664 -0.876791
v 0.372322 2.528070 -0.192245
v 0.139613 3.063928 0.063648
v 0.175398 2.148047 -0.771532
v 0.696199 2.179048 -0.539187
v 0.859508 0.649526 -1.447283
v 1.785706 0.645974 -0.747855
v 1.479401 1.426931 -0.809096
v -1.988077 1.734059 -0.114403
v 0.319460 -0.331336 1.876833
v 0.076840 -0.206039 1.860974
v 0.658113 2.584832 0.789411
v -0.642846 -1.624489 1.183653
v -0.022259 -2.281536 0.830625
v -0.027178 -2.249733 0.152836
v -1.365680 -1.500212 -0.691061
v -0.702624 3.300764 -0.147547
v -0.993969 2.853706 -0.518019
v -1.267725 2.936434 -0.092888
vt 0.494532 0.922679
vt 0.484073 0.987154
vt 0.411689 0.934718
vt 0.572175 0.290122
vt 0.540543 0.332830
vt 0.538456 0.231274
vt 0.804350 0.299821
vt 0.721673 0.323595
vt 0.774746 0.267001
vt 0.540673 0.815646
vt 0.520764 0.855986
vt 0.491960 0.787367
vt 0.929805 0.497377
vt 0.879585 0.507828
vt 0.896359 0.458364
vt 0.157314 0.213546
vt 0.225093 0.236807
vt 0.174548 0.298334
vt 0.820291 0.537143
vt 0.747260 0.597846
vt 0.743979 0.536363
vt 0.888569 0.415271
vt 0.840120 0.423311
vt 0.886213 0.367392
vt 0.930604 0.415245
vt 0.969842 0.381959
vt 0.976546 0.467073
vt 0.214493 0.185529
vt 0.161017 0.114683
vt 0.615891 0.843259
vt 0.659218 0.806748
vt 0.660347 0.865313
vt 0.055650 0.508386
vt 0.131089 0.459536
vt 0.115682 0.561092
vt 0.748020 0.408407
vt 0.713488 0.414788
vt 0.588132 0.335880
vt 0.594108 0.421196
vt 0.345823 0.198197
vt 0.299365 0.235959
vt 0.264643 0.213798
vt 0.502211 0.113691
vt 0.573824 0.121789
vt 0.861043 0.441156
vt 0.873366 0.459563
vt 0.833088 0.465604
vt 0.012783 0.393749
vt 0.070146 0.392772
vt 0.041611 0.452562
vt 0.293313 0.384354
vt 0.235301 0.315807
vt 0.288831 0.325891
vt 0.176608 0.386752
vt 0.225862 0.547043
vt 0.264104 0.115835
vt 0.275033 0.018712
vt 0.359737 0.027085
vt 0.984062 0.546219
vt 0.903179 0.552330
vt 0.438345 0.836722
vt 0.791898 0.468612
vt 0.756270 0.484991
vt 0.792588 0.725727
vt 0.672123 0.691468
vt 0.696320 0.625163
vt 0.357700 0.658299
vt 0.417545 0.619956
vt 0.435200 0.685966
vt 0.118506 0.864395
vt 0.081867 0.888632
vt 0.083156 0.832745
vt 0.187584 0.845874
vt 0.202587 0.795564
vt 0.254062 0.836597
vt 0.928248 0.137961
vt 0.862667 0.124388
vt 0.930144 0.078247
vt 0.281736 0.538119
vt 0.286395 0.484702
vt 0.336683 0.524804
vt 0.844083 0.505937
vt 0.178501 0.602008
vt 0.223079 0.634181
vt 0.128346 0.261881
vt 0.517336 0.643963
vt 0.506655 0.583201
vt 0.600859 0.594021
vt 0.285659 0.619792
vt 0.266815 0.668037
vt 0.101091 0.085280
vt 0.148084 0.064161
vt 0.017788 0.325827
vt 0.081661 0.289697
vt 0.107080 0.317091
vt 0.608769 0.910380
vt 0.665027 0.950882
vt 0.833101 0.632052
vt 0.915169 0.618119
vt 0.953841 0.693781
vt 0.139142 0.790028
vt 0.191285 0.736980
vt 0.372221 0.847423
vt 0.412983 0.775376
vt 0.050263 0.250425
vt 0.810491 0.390775
vt 0.522621 0.282038
vt 0.477293 0.362862
vt 0.437907 0.266279
vt 0.968486 0.605738
vt 0.567389 0.867701
vt 0.550587 0.914278
vt 0.308431 0.794170
vt 0.258414 0.794230
vt 0.258962 0.747894
vt 0.670121 0.436298
vt 0.660571 0.319533
vt 0.359088 0.233500
vt 0.289698 0.277498
vt 0.660228 0.490695
vt 0.702356 0.464669
vt 0.602641 0.550394
vt 0.689541 0.569648
vt 0.569996 0.987154
vt 0.528297 0.948266
vt 0.152063 0.856881
vt 0.985783 0.154432
vt 0.960499 0.233116
vt 0.922480 0.196036
vt 0.650769 0.233844
vt 0.183315 0.894044
vt 0.199824 0.958918
vt 0.114384 0.955186
vt 0.515721 0.389226
vt 0.527868 0.461977
vt 0.877610 0.259051
vt 0.441754 0.168588
vt 0.789529 0.059071
vt 0.872389 0.059071
vt 0.395632 0.355235
vt 0.351778 0.792070
vt 0.346995 0.726608
vt 0.920647 0.444695
vt 0.721912 0.456672
vt 0.592219 0.210677
vt 0.526464 0.698941
vt 0.216500 0.023604
vt 0.475576 0.735180
vt 0.563464 0.758785
vt 0.357785 0.441447
vt 0.149858 0.878149
vt 0.694837 0.273307
vt 0.723915 0.216423
vt 0.870078 0.187651
vt 0.795487 0.211955
vt 0.768230 0.168146
vt 0.135006 0.736980
vt 0.606925 0.676525
vt 0.633236 0.731413
vt 0.691404 0.755835
vt 0.681325 0.154584
vt 0.636008 0.170858
vt 0.398829 0.477519
vt 0.464141 0.435343
vt 0.102538 0.192697
vt 0.042039 0.169119
vt 0.090431 0.124710
vt 0.704992 0.086593
vt 0.640057 0.090757
vt 0.055544 0.791826
vt 0.764386 0.823856
vt 0.297650 0.566194
vt 0.723519 0.879687
vt 0.988828 0.101519
vt 0.955307 0.309489
vt 0.481262 0.068888
vt 0.040727 0.913334
vt 0.580469 0.487222
vt 0.550484 0.524239
vt 0.504816 0.530847
vn -0.6837 -0.6546 0.3225
vn -0.6739 -0.2112 0.7079
vn -0.6909 -0.5874 0.4214
vn -0.6238 0.2548 0.7389
vn -0.5560 0.4578 0.6936
vn -0.7476 0.6545 0.1124
vn -0.4898 -0.0787 0.8683
vn -0.4521 -0.0197 0.8917
vn -0.5260 -0.0716 0.8474
vn -0.0359 -0.9980 -0.0515
vn -0.5315 -0.8398 0.1103
vn -0.2225 -0.9330 -0.2826
vn 0.4418 -0.3126 0.8408
vn 0.5396 -0.0586 0.8398
vn 0.0673 -0.2301 0.9708
vn 0.4277 0.7350 -0.5261
vn 0.3366 0.6096 -0.7176
vn -0.0078 0.4066 -0.9135
vn 0.5274 0.1026 0.8434
vn 0.7982 0.2036 0.5669
vn 0.4020 0.1185 0.9079
vn -0.5321 -0.0870 0.8422
vn -0.4798 0.2743 0.8334
vn -0.5874 -0.0323 0.8086
vn -0.3774 -0.2783 0.8832
vn -0.3273 -0.3025 0.8952
vn 0.1731 -0.4876 0.8557
vn 0.7310 0.6377 -0.2428
vn 0.8090 0.5860 0.0447
vn 0.3612 -0.8679 0.3410
vn 0.5912 -0.7602 0.2693
vn 0.4606 -0.5944 0.6591
vn -0.7166 0.1770 -0.6746
vn -0.1594 0.1996 -0.9668
vn -0.7354 0.0234 -0.6772
vn -0.2980 -0.1387 0.9444
vn -0.3583 -0.1499 0.9214
vn -0.5271 0.2007 0.8258
vn -0.0837 0.3982 0.9134
vn 0.9249 0.2124 -0.3152
vn 0.6861 0.3047 -0.6606
vn 0.7302 0.5697 -0.3771
vn -0.3371 0.3949 -0.8546
vn -0.5957 0.3555 -0.7203
vn -0.3147 0.0653 0.9469
vn 0.1239 -0.0161 0.9922
vn 0.1006 0.3554 0.9293
vn -0.2249 0.1361 -0.9648
vn -0.4709 0.3255 -0.8199
vn -0.0706 0.1505 -0.9861
vn -0.0624 0.3327 -0.9409
vn 0.1392 0.1078 -0.9844
vn -0.2555 0.1814 -0.9496
vn -0.3692 0.0779 -0.9261
vn 0.9344 0.3358 0.1185
vn 0.8572 0.1550 0.4910
vn 0.5940 -0.3932 0.7018
vn 0.5855 -0.1146 0.8025
vn -0.6058 -0.7872 0.1155
vn -0.0098 0.2136 0.9769
vn 0.1488 -0.0093 0.9888
vn 0.9387 -0.3035 0.1636
vn 0.8218 -0.5425 -0.1741
vn 0.8353 -0.3545 -0.4202
vn -0.3006 -0.2719 -0.9141
vn -0.1524 -0.3138 -0.9372
vn -0.1078 -0.6853 -0.7202
vn -0.3763 0.8132 -0.4439
vn -0.2975 0.5487 -0.7813
vn -0.6779 0.6962 -0.2359
vn 0.1318 0.9788 -0.1565
vn 0.1354 0.9352 0.3272
vn 0.5539 0.7708 -0.3146
vn -0.8240 -0.5539 -0.1192
vn -0.9581 -0.1885 -0.2158
vn -0.7473 -0.3196 -0.5825
vn -0.2261 0.1289 -0.9655
vn -0.2052 0.1920 -0.9597
vn 0.4570 0.1718 0.8727
vn -0.7191 -0.3132 -0.6203
vn 0.2189 0.5740 -0.7890
vn -0.1102 -0.7354 -0.6686
vn -0.0161 -0.3819 -0.9240
vn 0.4841 -0.4098 -0.7731
vn -0.4878 -0.4905 -0.7221
vn -0.6514 -0.7110 -0.2646
vn 0.5997 0.6701 0.4374
vn 0.6804 0.4768 0.5565
vn 0.1304 0.4684 -0.8738
vn -0.0826 0.2219 -0.9716
vn 0.0763 -0.5543 0.8288
vn 0.7370 -0.1842 0.6503
vn -0.4141 0.8529 0.3179
vn -0.1186 0.7241 0.6794
vn -0.5642 -0.8115 0.1521
vn -0.4141 -0.8421 -0.3456
vn 0.2666 0.6097 -0.7464
vn -0.4590 0.1132 0.8812
vn 0.9445 -0.0099 -0.3283
vn 0.6741 -0.4799 0.5614
vn -0.1225 -0.9099 0.3962
vn -0.3265 -0.6839 0.6524
vn 0.6562 0.7525 -0.0556
vn 0.4625 0.8515 0.2470
vn 0.3784 0.7316 0.5671
vn -0.1186 0.2650 0.9569
vn -0.4965 0.2002 0.8446
vn 0.4066 0.2687 -0.8732
vn 0.3891 0.3709 0.8432
vn 0.2872 0.1279 0.9492
vn 0.6640 0.3665 0.6518
vn -0.5651 -0.4375 0.6994
vn -0.1120 0.9330 -0.3421
vn -0.6211 -0.6278 0.4692
vn -0.7849 0.1906 0.5895
vn -0.5693 -0.1819 0.8017
vn 0.5359 0.0174 -0.8441
vn -0.0617 -0.3365 0.9397
vn -0.1235 -0.2430 0.9621
vn -0.8972 0.4324 0.0889
vn -0.0810 -0.8252 -0.5589
vn -0.0500 -0.7661 -0.6407
vn 0.1438 -0.9608 -0.2369
vn 0.0780 0.1028 -0.9916
vn -0.5853 0.0817 0.8066
vn -0.8332 0.0357 0.5518
vn -0.8638 -0.2964 0.4073
vn -0.7604 -0.0123 0.6493
vn -0.9919 -0.0234 0.1245
vn 0.4068 -0.8123 -0.4178
vn 0.4966 -0.8676 -0.0248
vn 0.7517 -0.6391 0.1628
vn -0.9793 0.1899 -0.0694
vn -0.9260 0.3203 -0.1998
vn 0.5394 0.6979 -0.4711
vn 0.3710 0.5049 0.7794
usemtl rock_4_mat
s 1
f 8/1/1 9/2/2 10/3/3
f 30/4/4 29/5/5 22/6/6
f 15/7/7 25/8/8 2/9/9
f 132/10/10 13/11/11 45/12/12
f 76/13/13 68/14/14 66/15/15
f 122/16/16 118/17/17 115/18/18
f 79/19/19 96/20/20 88/21/21
f 6/22/22 7/23/23 16/24/24
f 5/25/25 12/26/26 71/27/27
f 116/28/28 122/16/16 95/29/29
f 72/30/30 75/31/31 73/32/32
f 54/33/33 57/34/34 40/35/35
f 27/36/36 23/37/37 25/8/8
f 28/38/38 29/5/5 30/4/4
f 28/38/38 32/39/39 29/5/5
f 124/40/40 113/41/41 125/42/42
f 61/43/43 56/44/44 22/6/6
f 128/45/45 127/46/46 67/47/47
f 56/48/44 58/49/48 55/50/49
f 108/51/50 114/52/51 123/53/52
f 57/34/34 109/54/53 48/55/54
f 97/56/55 96/57/20 82/58/56
f 74/59/57 78/60/58 76/13/13
f 41/61/59 13/11/11 8/1/1
f 77/62/60 86/63/61 27/36/36
f 83/64/62 102/65/63 111/66/64
f 49/67/65 50/68/66 47/69/67
f 60/70/68 135/71/69 136/72/70
f 63/73/71 34/74/72 120/75/73
f 35/76/74 37/77/75 36/78/76
f 51/79/77 52/80/78 50/81/66
f 69/82/79 68/14/14 79/19/19
f 39/83/80 48/55/54 36/84/76
f 121/85/81 122/16/16 115/18/18
f 100/86/82 106/87/83 104/88/84
f 36/84/76 44/89/85 133/90/86
f 129/91/87 94/92/88 95/29/29
f 78/60/58 68/14/14 76/13/13
f 61/93/43 64/94/89 59/95/90
f 16/24/24 12/26/26 5/25/25
f 127/46/46 66/15/15 68/14/14
f 68/14/14 78/60/58 79/19/19
f 70/96/91 73/32/32 71/97/27
f 58/49/48 61/93/43 59/95/90
f 82/98/56 81/99/92 83/100/62
f 34/74/72 31/101/93 33/102/94
f 78/60/58 81/99/92 82/98/56
f 41/61/59 42/103/95 43/104/96
f 121/85/81 64/94/89 62/105/97
f 15/7/7 16/24/24 17/106/98
f 83/107/62 111/108/64 112/109/99
f 74/59/57 80/110/100 78/60/58
f 109/54/53 52/80/78 48/55/54
f 13/11/11 131/111/101 11/112/102
f 92/113/103 93/114/104 91/115/105
f 23/37/37 24/116/106 26/117/107
f 13/11/11 11/112/102 8/1/1
f 124/118/40 117/119/108 113/41/41
f 86/63/61 87/120/109 85/121/110
f 94/122/88 87/120/109 89/123/111
f 12/124/26 9/2/2 130/125/112
f 45/12/12 41/61/59 43/104/96
f 67/47/47 69/82/79 77/62/60
f 31/101/93 63/73/71 134/126/113
f 42/127/95 10/128/3 1/129/114
f 30/4/4 20/130/115 26/117/107
f 63/131/71 120/132/73 62/133/97
f 41/61/59 8/1/1 10/3/3
f 33/134/94 32/39/39 91/135/105
f 15/7/7 14/136/116 16/24/24
f 82/58/56 112/137/99 124/40/40
f 40/138/35 39/139/80 37/77/75
f 105/140/117 112/109/99 111/108/64
f 115/18/18 118/17/17 114/52/51
f 43/104/96 42/103/95 133/141/86
f 44/142/85 49/67/65 47/69/67
f 114/52/51 109/54/53 115/18/18
f 76/13/13 65/143/118 71/27/27
f 57/34/34 48/55/54 40/35/35
f 118/17/17 122/16/16 116/28/28
f 82/98/56 96/20/20 79/19/19
f 67/47/47 127/46/46 68/14/14
f 11/112/102 70/96/91 12/124/26
f 11/112/102 131/111/101 70/96/91
f 5/25/25 65/143/118 6/22/22
f 52/80/78 51/79/77 48/55/54
f 67/47/47 77/62/60 7/23/23
f 23/37/37 84/144/119 85/121/110
f 44/89/85 36/84/76 48/55/54
f 21/145/120 20/130/115 30/4/4
f 23/37/37 27/36/36 86/63/61
f 47/69/67 100/86/82 99/146/121
f 89/147/111 96/57/20 95/29/29
f 45/12/12 46/148/122 98/149/123
f 17/106/98 77/62/60 27/36/36
f 52/80/78 107/150/124 50/81/66
f 62/133/97 60/70/68 134/151/113
f 109/54/53 59/95/90 115/18/18
f 2/9/9 18/152/125 19/153/126
f 94/92/88 89/147/111 95/29/29
f 64/94/89 121/85/81 59/95/90
f 65/143/118 5/25/25 71/27/27
f 3/154/127 4/155/128 38/156/129
f 1/129/114 35/76/74 42/127/95
f 72/30/30 98/149/123 75/31/31
f 33/102/94 31/101/93 29/157/5
f 100/86/82 103/158/130 99/146/121
f 111/66/64 103/158/130 104/88/84
f 75/31/31 101/159/131 110/160/132
f 19/153/126 20/130/115 53/161/133
f 97/56/55 124/40/40 125/42/42
f 34/74/72 63/73/71 31/101/93
f 126/162/134 20/130/115 21/145/120
f 50/68/66 100/86/82 47/69/67
f 106/163/83 107/150/124 104/164/84
f 119/165/135 120/166/73 92/167/103
f 124/118/40 112/109/99 105/140/117
f 105/140/117 107/150/124 108/51/50
f 54/33/33 55/50/49 57/34/34
f 58/49/48 109/54/53 57/34/34
f 46/148/122 99/146/121 98/149/123
f 38/156/129 53/161/133 54/168/33
f 55/50/49 58/49/48 57/34/34
f 77/62/60 79/19/19 86/63/61
f 15/7/7 17/106/98 25/8/8
f 56/44/44 55/169/49 126/162/134
f 4/155/128 19/153/126 38/156/129
f 120/166/73 119/165/135 62/105/97
f 31/101/93 22/170/6 29/157/5
f 69/82/79 79/19/19 77/62/60
f 47/69/67 43/104/96 44/142/85
f 130/125/112 11/112/102 12/124/26
f 7/23/23 128/45/45 67/47/47
f 28/38/38 30/4/4 26/117/107
f 88/21/21 96/20/20 89/123/111
f 7/23/23 17/106/98 16/24/24
f 85/121/110 87/120/109 24/116/106
f 25/8/8 23/37/37 26/117/107
f 18/152/125 20/130/115 19/153/126
f 117/119/108 125/42/42 113/41/41
f 32/39/39 33/134/94 29/5/5
f 25/8/8 26/117/107 18/152/125
f 123/53/52 117/119/108 105/140/117
f 8/1/1 11/112/102 130/125/112
f 9/2/2 8/1/1 130/125/112
f 109/54/53 108/51/50 52/80/78
f 110/160/132 83/64/62 80/171/100
f 21/145/120 56/44/44 126/162/134
f 95/29/29 122/16/16 119/165/135
f 43/104/96 133/141/86 44/142/85
f 55/169/49 53/161/133 126/162/134
f 21/145/120 30/4/4 22/6/6
f 118/17/17 125/42/42 117/119/108
f 49/172/65 51/79/77 50/81/66
f 48/55/54 51/79/77 49/172/65
f 117/119/108 124/118/40 105/140/117
f 54/168/33 53/161/133 55/169/49
f 73/32/32 75/31/31 74/173/57
f 133/174/86 42/127/95 35/76/74
f 34/74/72 91/115/105 93/114/104
f 49/172/65 44/89/85 48/55/54
f 58/49/48 56/48/44 61/93/43
f 38/156/129 40/138/35 37/77/75
f 68/14/14 69/82/79 67/47/47
f 16/24/24 9/175/2 12/26/26
f 100/86/82 104/88/84 103/158/130
f 87/120/109 88/21/21 89/123/111
f 83/64/62 110/160/132 102/65/63
f 82/58/56 83/176/62 112/137/99
f 28/38/38 26/117/107 32/39/39
f 83/100/62 81/99/92 80/110/100
f 76/13/13 66/15/15 65/143/118
f 80/110/100 81/99/92 78/60/58
f 13/11/11 41/61/59 45/12/12
f 123/53/52 105/140/117 108/51/50
f 127/46/46 6/22/22 66/15/15
f 22/170/6 31/101/93 136/72/70
f 3/154/127 38/156/129 37/77/75
f 84/144/119 86/63/61 85/121/110
f 116/28/28 97/56/55 125/42/42
f 82/58/56 124/40/40 97/56/55
f 101/159/131 103/158/130 102/65/63
f 88/21/21 87/120/109 86/63/61
f 101/159/131 98/149/123 103/158/130
f 104/164/84 107/150/124 105/140/117
f 62/133/97 61/177/43 135/71/69
f 101/159/131 102/65/63 110/160/132
f 56/44/44 21/145/120 22/6/6
f 52/80/78 108/51/50 107/150/124
f 91/135/105 90/178/136 129/179/87
f 70/96/91 72/30/30 73/32/32
f 104/164/84 105/140/117 111/108/64
f 118/17/17 117/119/108 114/52/51
f 64/94/89 61/93/43 62/105/97
f 95/29/29 96/57/20 97/56/55
f 125/42/42 118/17/17 116/28/28
f 75/31/31 110/160/132 80/171/100
f 87/120/109 32/39/39 24/116/106
f 79/19/19 88/21/21 86/63/61
f 70/96/91 71/97/27 12/124/26
f 111/66/64 102/65/63 103/158/130
f 92/167/103 95/29/29 119/165/135
f 77/62/60 17/106/98 7/23/23
f 24/116/106 23/37/37 85/121/110
f 33/102/94 91/115/105 34/74/72
f 87/120/109 90/178/136 32/39/39
f 84/144/119 23/37/37 86/63/61
f 20/130/115 18/152/125 26/117/107
f 48/55/54 39/83/80 40/35/35
f 107/150/124 106/163/83 50/81/66
f 50/68/66 106/87/83 100/86/82
f 35/76/74 3/154/127 37/77/75
f 16/24/24 5/25/25 6/22/22
f 121/85/81 115/18/18 59/95/90
f 2/9/9 25/8/8 18/152/125
f 132/10/10 45/12/12 98/149/123
f 119/165/135 122/16/16 62/105/97
f 98/149/123 101/159/131 75/31/31
f 109/54/53 58/49/48 59/95/90
f 78/60/58 82/98/56 79/19/19
f 41/61/59 10/3/3 42/103/95
f 109/54/53 114/52/51 108/51/50
f 92/167/103 129/91/87 95/29/29
f 120/75/73 93/114/104 92/113/103
f 35/76/74 36/78/76 133/174/86
f 46/148/122 43/104/96 47/69/67
f 4/155/128 2/9/9 19/153/126
f 17/106/98 27/36/36 25/8/8
f 129/179/87 90/178/136 94/122/88
f 40/138/35 38/156/129 54/168/33
f 74/59/57 76/13/13 71/27/27
f 74/173/57 75/31/31 80/171/100
f 99/146/121 46/148/122 47/69/67
f 117/119/108 123/53/52 114/52/51
f 19/153/126 53/161/133 38/156/129
f 6/22/22 65/143/118 66/15/15
f 32/39/39 90/178/136 91/135/105
f 126/162/134 53/161/133 20/130/115
f 116/28/28 95/29/29 97/56/55
f 6/22/22 128/45/45 7/23/23
f 6/22/22 127/46/46 128/45/45
f 73/32/32 74/173/57 71/97/27
f 129/179/87 92/180/103 91/135/105
f 39/139/80 36/78/76 37/77/75
f 99/146/121 103/158/130 98/149/123
f 70/96/91 131/111/101 72/30/30
f 90/178/136 87/120/109 94/122/88
f 132/10/10 131/111/101 13/11/11
f 132/10/10 72/30/30 131/111/101
f 132/10/10 98/149/123 72/30/30
f 46/148/122 45/12/12 43/104/96
f 120/75/73 34/74/72 93/114/104
f 35/76/74 1/129/114 3/154/127
f 122/16/16 121/85/81 62/105/97
f 32/39/39 26/117/107 24/116/106
f 135/71/69 61/177/43 136/72/70
f 61/177/43 22/170/6 136/72/70
f 60/70/68 31/101/93 134/126/113
f 63/131/71 62/133/97 134/151/113
f 31/101/93 60/70/68 136/72/70
f 60/70/68 62/133/97 135/71/69
f 1/129/114 10/128/3 14/136/116
f 14/136/116 4/155/128 3/154/127
f 10/128/3 9/175/2 14/136/116
f 3/154/127 1/129/114 14/136/116
f 14/136/116 15/7/7 2/9/9
f 14/136/116 9/175/2 16/24/24
f 14/136/116 2/9/9 4/155/128
